<?xml version="1.0" encoding="UTF-8"?>
<svg id="_レイヤー_2" data-name="レイヤー 2" xmlns="http://www.w3.org/2000/svg" viewBox="0 0 278.79 46.9">
  <defs>
    <style>
      .cls-1 {
        fill: #66d1b0;
      }

      .cls-2 {
        fill: #fff;
      }
    </style>
  </defs>
  <g id="_レイヤー_1-2" data-name=" レイヤー 1">
    <g>
      <path id="_長方形_1-2" data-name=" 長方形 1-2" class="cls-1" d="M23.05,0h232.69c12.73,0,23.05,10.5,23.05,23.45h0c0,12.95-10.32,23.45-23.05,23.45H23.05C10.32,46.9,0,36.4,0,23.45h0C0,10.5,10.32,0,23.05,0Z"/>
      <g>
        <path class="cls-2" d="M64.14,25.99c0,1.87.06,2.92.06,3.89,0,1.07-.18,1.6-.6,1.93-.43.33-.86.43-1.99.43-.4.01-.65-.18-.74-.58-.12-.6-.31-1.03-.47-1.36.43.06.76.06,1.25.06s.62-.18.62-.74v-3.82l-.58.18c-.35.12-.58.25-.7.33-.1.08-.19.12-.29.12-.12,0-.19-.06-.25-.25-.14-.53-.23-1.15-.31-1.85.58-.08,1.11-.17,1.79-.35l.35-.08v-3.91h-.12c-1.23,0-1.62.04-1.71.04-.19,0-.21-.02-.21-.21v-1.4c0-.21.02-.23.21-.23.1,0,.49.04,1.71.04h.12v-.84c0-1.25-.04-1.87-.16-2.76.7.02,1.28.06,1.97.16.2.02.31.1.31.19,0,.16-.08.27-.14.41-.1.23-.12.64-.12,1.97v.88c1.03,0,1.38-.04,1.52-.04.2,0,.21.02.21.23v1.4c0,.19-.02.21-.21.21-.14,0-.49-.04-1.52-.04v3.37c.33-.12.7-.25,1.07-.41v-1.15c0-.21.02-.23.21-.23.12,0,.78.04,2.69.04h7.05c1.91,0,2.57-.04,2.69-.04.17,0,.19.02.19.21v1.21c0,.21-.02.23-.19.23-.12,0-.78-.04-2.69-.04h-3.76v7.65c.95-.54,1.73-1.11,2.36-1.73-.64-.97-1.09-2.06-1.38-3.31-.18.02-.27.02-.31.02-.2,0-.21-.02-.21-.21v-1.15c0-.21.02-.23.21-.23.1,0,.47.04,1.71.04h2.22c.16,0,.29,0,.39-.04.08-.02.14-.06.23-.06.12,0,.31.1.64.41.35.35.47.53.47.64,0,.16-.08.23-.16.31-.16.14-.25.37-.31.6-.31,1.09-.76,2.06-1.36,2.96.68.58,1.48,1.03,2.42,1.36-.25.27-.49.74-.68,1.23-.12.31-.2.43-.33.43-.1,0-.23-.06-.45-.17-.78-.43-1.44-.93-2.02-1.52-.56.58-1.21,1.11-1.97,1.6-.21.12-.33.2-.43.2-.14,0-.21-.14-.37-.43-.2-.35-.45-.66-.66-.88,0,.82.04,1.27.04,1.32,0,.19-.02.21-.21.21h-1.23c-.19,0-.21-.02-.21-.21,0-.1.02-.74.04-2.03-1.3.27-2.47.51-3.41.64-.25.04-.41.1-.51.18-.12.08-.17.12-.31.12-.1,0-.17-.08-.23-.31-.1-.39-.21-.93-.29-1.5.41,0,.84-.02,1.29-.06v-6.05c-.37,0-.62,0-.78.02-.02.23-.04.49-.04.78-.01.41-.21.7-.58.86-.27.12-.54.23-.82.33v.82l-.02-.04ZM73.72,15.2c1.73,0,2.32-.04,2.43-.04.2,0,.21.02.21.21,0,.12-.04.56-.04,1.58v2c0,1.03.04,1.48.04,1.6,0,.18-.02.19-.21.19-.12,0-.7-.04-2.43-.04h-4.03c-1.71,0-2.32.04-2.45.04-.19,0-.21-.02-.21-.19,0-.14.04-.56.04-1.6v-2c0-1.01-.04-1.44-.04-1.58,0-.2.02-.21.21-.21.14,0,.74.04,2.45.04h4.03ZM67.94,23.17v1.09h1.89v-1.09h-1.89ZM69.82,26.55v-1.09h-1.89v1.09h1.89ZM69.82,27.78h-1.89v1.27c.56-.1,1.19-.2,1.89-.33v-.93h0ZM68.91,17.36h5.53v-.82h-5.53v.82ZM74.44,18.57h-5.53v.82h5.53v-.82ZM73.85,25.76c.21.76.53,1.44.92,2.04.39-.62.68-1.3.9-2.04h-1.82Z"/>
        <path class="cls-2" d="M81.86,28.93c.16-.25.27-.51.35-.78.45.16.93.33,1.34.54.21.1.33.17.33.27,0,.08-.04.16-.14.23-.12.1-.29.37-.43.58-.27.45-.74,1.09-1.17,1.6-.21.23-.33.37-.45.37s-.23-.1-.43-.29c-.35-.35-.68-.53-1.01-.7.72-.6,1.17-1.11,1.6-1.83h0ZM83.11,23.26c-1.81,0-2.43.04-2.55.04-.19,0-.21-.02-.21-.21v-1.15c0-.21.02-.23.21-.23.12,0,.74.04,2.55.04h1.77v-.95h-.84c-1.64,0-2.2.04-2.34.04-.2,0-.21-.02-.21-.21,0-.12.04-.54.04-1.6v-1.97c0-1.03-.04-1.46-.04-1.58,0-.19.02-.21.21-.21.14,0,.7.04,2.34.04h3.49c1.64,0,2.2-.04,2.32-.04.21,0,.23.02.23.21,0,.12-.04.55-.04,1.58v1.97c0,1.05.04,1.48.04,1.6,0,.19-.02.21-.23.21-.12,0-.68-.04-2.32-.04h-.76v.95h1.36c1.83,0,2.43-.04,2.55-.04.19,0,.21.02.21.23v1.15c0,.19-.02.21-.21.21-.12,0-.72-.04-2.55-.04h-5.02ZM87.31,24.14c1.56,0,2.1-.04,2.24-.04.2,0,.21.02.21.21,0,.12-.04.39-.04,1.15v1.09c0,.78.04,1.05.04,1.17,0,.2-.02.21-.21.21-.14,0-.68-.04-2.24-.04h-.51v.45c0,.64.08,1.3.08,2.03s-.21,1.32-.68,1.65c-.37.25-.82.27-1.85.27-.41.01-.65-.12-.7-.39-.12-.62-.29-1.03-.49-1.42.37.06.82.1,1.19.1.49,0,.6-.16.6-.6v-2.08h-.72c-1.58,0-2.08.04-2.22.04-.2,0-.21-.02-.21-.21,0-.14.04-.39.04-1.17v-1.09c0-.76-.04-1.01-.04-1.15,0-.19.02-.21.21-.21.14,0,.64.04,2.22.04h3.08,0ZM83.38,17.48h4.79v-.86h-4.79v.86ZM88.17,18.67h-4.79v.88h4.79v-.88ZM87.86,25.44h-4.19v1.15h4.19v-1.15ZM88.75,28.19c.23-.12.23-.1.39.08.53.6.97,1.29,1.32,1.99,2.3-1.13,4.01-2.39,5.33-3.91.29-.35.47-.58.72-1.03.56.37.99.72,1.44,1.13.16.14.21.23.21.35,0,.14-.1.19-.23.27-.16.1-.31.27-.64.64-1.5,1.69-3.27,3.06-5.57,4.25-.23.14-.39.19-.49.19-.14,0-.21-.1-.35-.33-.23-.41-.49-.72-.8-.99l-.7.47c-.23.16-.25.12-.35-.08-.39-.82-.8-1.54-1.34-2.22-.14-.17-.08-.21.16-.33l.9-.47h0ZM97.46,20.97c.17.16.19.23.19.33,0,.12-.1.21-.23.27-.19.08-.33.19-.64.56-1.21,1.38-2.78,2.51-4.69,3.49-.21.12-.35.17-.45.17-.14,0-.21-.14-.39-.47-.27-.47-.58-.82-.93-1.13,2.26-.93,3.91-2.22,5.04-3.5.27-.31.45-.55.64-.86.62.41,1.03.72,1.46,1.13h0ZM97.11,15.98c.14.12.23.21.23.33s-.08.19-.21.25c-.16.08-.41.27-.7.51-1.13,1.15-2.43,2.08-4.21,2.9-.21.1-.35.16-.45.16-.14,0-.21-.12-.39-.43-.29-.53-.57-.84-.9-1.17,2.01-.76,3.31-1.67,4.5-2.88.23-.25.41-.49.6-.78.58.37,1.15.78,1.52,1.11h0Z"/>
        <path class="cls-2" d="M105.48,19.8c-1.27,0-2.38.06-3.21.1-.25.02-.33-.12-.37-.39-.06-.39-.14-1.4-.17-1.97.88.1,1.91.14,3.74.14h6.95c.58,0,.8-.04,1.07-.19.12-.08.23-.12.33-.12.12,0,.23.04.33.14.51.41.99.88,1.32,1.34.1.14.16.25.16.39,0,.12-.06.23-.19.37-.18.18-.27.37-.45.76-.95,2.3-2.14,4.44-3.78,6.33-1.67,1.91-3.56,3.52-5.53,4.63-.17.12-.35.17-.53.17-.16,0-.33-.06-.49-.21-.45-.43-1.09-.78-1.81-1.07,2.84-1.44,4.58-2.78,6.37-4.87,1.52-1.73,2.51-3.39,3.29-5.55h-7.03ZM118.94,16.06c0,1.17-.93,2.08-2.1,2.08s-2.1-.92-2.1-2.08.93-2.08,2.1-2.08,2.1.92,2.1,2.08ZM115.68,16.06c0,.66.49,1.15,1.15,1.15s1.15-.49,1.15-1.15-.49-1.15-1.15-1.15-1.15.49-1.15,1.15Z"/>
        <path class="cls-2" d="M126.16,22.33c-.97,0-1.95.02-2.92.08-.18,0-.25-.12-.29-.37-.12-.49-.16-1.21-.21-1.97,1.11.12,2.3.16,3.58.16h6.68c.33,0,.72-.04,1.03-.21.1-.08.17-.12.25-.12.1,0,.2.06.29.14.47.37.99.86,1.3,1.21.14.14.19.27.19.41,0,.12-.06.25-.21.37-.31.25-.45.47-.66.92-1.95,4.15-4.19,6.58-7.94,8.61-.16.08-.27.14-.39.14-.14,0-.27-.08-.43-.23-.53-.47-1.15-.76-1.81-1.01,3.6-1.67,6.78-4.36,8.18-8.12l-6.64.02v-.03ZM127.47,18.14c-.88,0-1.85.02-2.67.08-.2,0-.25-.12-.27-.43-.06-.41-.1-1.27-.1-1.87,1.19.12,1.77.14,3.19.14h3.5c1.27,0,2.3-.06,3.06-.1.17,0,.23.1.23.31.04.49.04,1.03,0,1.52,0,.33-.06.41-.35.39-.64,0-1.56-.04-2.75-.04h-3.86.02Z"/>
        <path class="cls-2" d="M143.67,17.23c.08-.1.17-.16.27-.16.08,0,.16.04.25.1.99.53,2.61,1.71,3.72,2.76.12.12.18.19.18.27s-.04.16-.12.25c-.29.39-.93,1.17-1.21,1.46-.1.1-.16.16-.23.16s-.16-.06-.25-.16c-1.17-1.21-2.57-2.32-3.97-3.17.43-.53.99-1.13,1.36-1.52h0ZM145.37,27.49c2.38-1.23,3.64-2.04,5.61-3.62,2.38-1.93,3.68-3.17,5.33-5.29.12.97.29,1.63.55,2.28.06.14.1.25.1.37,0,.17-.1.33-.31.58-1.03,1.21-2.71,2.76-4.48,4.13-1.62,1.27-3.25,2.36-5.88,3.82-.88.53-1.13.72-1.3.9-.12.12-.23.19-.35.19-.1,0-.21-.08-.33-.21-.49-.54-1.09-1.34-1.56-2.16.99-.27,1.6-.45,2.63-.97v-.02Z"/>
        <path class="cls-2" d="M171.62,28.07c0,.21-.12.31-.37.35s-.84.1-1.38.1c-.17,0-.25-.12-.25-.31,0-.7,0-1.67.02-2.38-1.73.9-2.36,1.66-2.36,2.59,0,.82.66,1.34,2.71,1.34,1.79,0,3.35-.18,4.85-.39.18-.02.25.04.27.21.1.45.17,1.13.17,1.6.02.23-.06.37-.21.37-1.67.21-2.94.25-4.83.25-3.19,0-4.89-.95-4.89-3.21,0-1.87,1.17-3.23,4.11-4.75-.06-.99-.29-1.38-1.17-1.34-.92.04-1.79.62-2.69,1.4-.84.82-1.32,1.38-1.95,2.12-.1.12-.16.17-.23.17-.06,0-.14-.06-.21-.14-.27-.27-.86-.88-1.11-1.28-.06-.08-.08-.14-.08-.18,0-.08.04-.14.14-.21,1.5-1.34,2.94-2.88,4.07-4.83-.92.04-1.97.06-3.12.06-.17,0-.23-.1-.27-.31-.06-.31-.14-1.03-.19-1.62,1.48.08,3,.06,4.48-.02.21-.53.39-.99.58-1.67.08-.33.14-.66.14-1.19.86.14,1.71.35,2.22.54.16.06.23.19.23.33,0,.1-.04.21-.14.29-.12.1-.23.27-.33.47-.12.27-.21.53-.45,1.05,1.19-.14,2.38-.33,3.54-.6.21-.04.27.02.31.19.1.39.17.84.19,1.4.02.19-.06.27-.33.31-1.46.21-3.13.43-4.56.58-.45.72-.88,1.44-1.46,2.16l.02.04c.62-.41,1.42-.6,1.95-.6,1.29,0,2.18.58,2.38,2.1.76-.35,1.87-.86,2.86-1.36.37-.19.99-.54,1.48-1.05.64.68,1.15,1.36,1.36,1.71.12.18.16.31.16.43,0,.16-.1.23-.29.27-.41.06-.8.16-1.19.29-1.27.45-2.53.88-4.19,1.56v3.16Z"/>
        <path class="cls-2" d="M192.41,29.4c0,.45.1.58.35.64.25.08.76.1,1.52.1.7,0,1.44-.08,1.67-.25.31-.23.47-.76.49-2.06.39.25.92.51,1.42.68.33.11.47.33.43.66-.12,1.36-.37,1.87-.92,2.26-.54.43-1.75.58-3.25.58s-2.38-.06-2.94-.27c-.45-.19-.8-.51-.8-1.38v-4.03h-1.75c-.56,3.29-2.61,5.3-5.98,6-.19.04-.31.06-.41.06-.2,0-.25-.1-.45-.49-.25-.49-.58-.93-.95-1.27,3.45-.43,5.26-1.87,5.65-4.3h-.04c-1.89,0-2.51.04-2.63.04-.21,0-.23-.02-.23-.21,0-.14.04-.86.04-2.37v-5.82c0-1.56-.04-2.28-.04-2.42,0-.19.02-.21.23-.21.12,0,.78.04,2.67.04h6.27c1.87,0,2.53-.04,2.67-.04.2,0,.21.02.21.21,0,.14-.04.86-.04,2.42v5.82c0,1.52.04,2.26.04,2.37,0,.2-.02.21-.21.21-.14,0-.8-.04-2.67-.04h-.35v3.08h0ZM185.64,17.13v1.42h7.94v-1.42h-7.94ZM193.58,21.57v-1.38h-7.94v1.38h7.94ZM193.58,23.21h-7.94v1.44h7.94v-1.44Z"/>
        <path class="cls-2" d="M208.46,22.72c1.09-.62,2-.88,3.1-.88,2.84,0,4.83,1.87,4.83,4.67,0,3.25-2.63,5.33-6.79,5.33-2.45,0-3.93-1.05-3.93-2.86,0-1.3,1.23-2.38,2.75-2.38,1.83,0,3.17.97,3.66,2.84,1.36-.62,1.99-1.48,1.99-2.96,0-1.77-1.25-2.94-3.06-2.94-1.62,0-3.41.72-4.98,2.06-.56.51-1.11,1.07-1.69,1.66-.14.14-.23.21-.33.21-.08,0-.17-.06-.29-.18-.41-.35-.84-.86-1.15-1.26-.12-.16-.06-.29.1-.45,1.52-1.23,2.86-2.47,4.61-4.3,1.21-1.25,2.12-2.22,3.02-3.33-1.17.21-2.55.49-3.76.74-.25.06-.51.12-.82.23-.1.04-.29.1-.39.1-.19,0-.33-.1-.43-.33-.23-.45-.41-.99-.68-2.1.58.08,1.23.08,1.81.04,1.19-.12,2.9-.37,4.42-.66.49-.1.88-.2,1.07-.29.1-.06.27-.16.37-.16.19,0,.31.06.45.16.58.45.97.84,1.3,1.25.16.17.21.31.21.47,0,.2-.12.37-.33.47-.33.16-.49.29-.86.62-1.42,1.38-2.73,2.75-4.21,4.17l.02.06h0ZM208.48,28.27c-.56,0-.93.33-.93.74,0,.6.53,1.01,1.69,1.01.35,0,.6-.02.9-.08-.25-1.07-.84-1.67-1.66-1.67Z"/>
      </g>
    </g>
  </g>
</svg>