<?xml version="1.0" encoding="UTF-8"?>
<svg id="_レイヤー_2" data-name="レイヤー 2" xmlns="http://www.w3.org/2000/svg" viewBox="0 0 339.61 51.92">
  <defs>
    <style>
      .cls-1 {
        fill: #f27474;
      }

      .cls-2 {
        fill: #fff;
      }
    </style>
  </defs>
  <g id="_レイヤー_1-2" data-name=" レイヤー 1">
    <g>
      <rect class="cls-1" width="339.61" height="51.92" rx="9.67" ry="9.67"/>
      <g>
        <path class="cls-2" d="M37.82,18.78c.2-.42.3-.78.42-1.3.72.2,1.44.44,1.98.7.22.1.3.2.3.34,0,.12-.04.2-.18.3-.2.14-.32.34-.46.62-1.52,3.1-3.42,5.48-5.88,7.36-.22.18-.36.28-.46.28-.12,0-.2-.14-.38-.44-.34-.56-.76-1.06-1.12-1.3,2.64-1.62,4.64-4.06,5.78-6.56h0ZM44.44,27.24c.12-.06.18-.1.24-.1.04,0,.08.04.16.12,1.62,2,2.88,3.94,4.26,6.4.1.18.1.22-.18.38l-1.5.86c-.1.06-.18.1-.24.1-.08,0-.12-.04-.18-.16-.3-.62-.62-1.22-.94-1.82-3.36.5-7,.9-10.52,1.2-.4.04-.6.12-.76.22-.14.1-.22.14-.34.14-.14,0-.24-.12-.3-.32-.18-.56-.34-1.28-.48-2.12.76.02,1.48,0,2.28-.04.18,0,.38-.02.56-.02,1.08-2.36,2.04-4.74,2.58-6.48.26-.8.44-1.42.54-2.1.78.18,1.46.32,2.14.52.22.08.38.18.38.34,0,.14-.04.22-.16.36-.18.2-.3.42-.52.96-.72,1.92-1.6,4.14-2.56,6.22,2.04-.16,4.18-.36,6.16-.58-.64-1-1.3-1.98-2.04-2.96-.12-.16-.1-.2.16-.36l1.26-.76h0ZM44.06,17.52c.26-.12.3-.1.4.1,1.32,3.1,3.78,5.82,6.5,7.4-.38.3-.8.92-1.12,1.5-.16.3-.26.44-.38.44-.1,0-.22-.1-.42-.26-2.92-2.22-5.14-5.12-6.52-8.26-.08-.22-.04-.24.2-.36l1.34-.56Z"/>
        <path class="cls-2" d="M57.26,22.7c-1.82,0-2.44.04-2.56.04-.2,0-.2-.02-.2-.24v-1.58c0-.22,0-.24.2-.24.12,0,.74.04,2.56.04h7.18c0-.26-.02-.54-.02-.82,0-1.34-.04-1.92-.16-2.86.72.02,1.5.04,2.18.12.2.02.32.12.32.24,0,.16-.08.3-.12.42-.1.28-.12.68-.1,2.02v.88h2.46c1.82,0,2.44-.04,2.56-.04.2,0,.22.02.22.24v1.58c0,.22-.02.24-.22.24-.12,0-.74-.04-2.56-.04h-2.38c.14,2.6.46,4.86,1.14,6.84.58,1.8,1.2,2.96,1.8,2.96.54,0,.78-1.1.9-2.92.3.3.86.66,1.3.9.39.21.55.53.5.94-.4,2.56-1.24,3.64-2.42,3.62-1.52-.02-2.92-1.44-3.92-4.4-.76-2.18-1.18-4.96-1.38-7.94h-7.28ZM60.5,27.14v3.92c1.32-.32,2.7-.7,3.9-1.12-.04.36-.06.86-.06,1.26,0,.44-.2.72-.6.84-2,.66-5,1.48-7.16,1.94-.5.12-.72.22-.84.3-.14.08-.24.14-.36.14s-.22-.08-.28-.26c-.16-.48-.36-1.32-.52-2.02.68-.02,1.2-.1,1.92-.24l1.92-.36v-4.4h-.68c-1.7,0-2.26.04-2.38.04-.2,0-.22-.02-.22-.2v-1.5c0-.22.02-.24.22-.24.12,0,.68.04,2.38.04h3.54c1.68,0,2.24-.04,2.36-.04.22,0,.24.02.24.24v1.5c0,.18-.02.2-.24.2-.12,0-.68-.04-2.36-.04h-.78ZM68.56,17.38c.12-.08.18-.12.24-.12s.12.04.2.12c.62.5,1.24,1.16,1.72,1.84.12.16.1.24-.14.4l-.94.64c-.12.08-.2.12-.26.12s-.12-.06-.18-.16c-.44-.74-1.04-1.42-1.56-1.9-.16-.16-.12-.22.08-.36l.84-.58h0Z"/>
        <path class="cls-2" d="M81.38,24.88c-1,0-2,.02-3,.08-.18,0-.26-.12-.3-.38-.12-.5-.16-1.24-.22-2.02,1.14.12,2.36.16,3.68.16h6.86c.34,0,.74-.04,1.06-.22.1-.08.18-.12.26-.12.1,0,.2.06.3.14.48.38,1.02.88,1.34,1.24.14.14.2.28.2.42,0,.12-.06.26-.22.38-.32.26-.46.48-.68.94-2,4.26-4.3,6.76-8.16,8.84-.16.08-.28.14-.4.14-.14,0-.28-.08-.44-.24-.54-.48-1.18-.78-1.86-1.04,3.7-1.72,6.96-4.48,8.4-8.34l-6.82.02h0ZM82.72,20.58c-.9,0-1.9.02-2.74.08-.2,0-.26-.12-.28-.44-.06-.42-.1-1.3-.1-1.92,1.22.12,1.82.14,3.28.14h3.6c1.3,0,2.36-.06,3.14-.1.18,0,.24.1.24.32.04.5.04,1.06,0,1.56,0,.34-.06.42-.36.4-.66,0-1.6-.04-2.82-.04h-3.96Z"/>
        <path class="cls-2" d="M108.54,29.92c0,1.38.02,2.56.06,4.16.02.26-.08.34-.3.34-.64.04-1.36.04-2,0-.22,0-.3-.08-.28-.32.02-1.44.08-2.74.08-4.1v-4.66c-1.76,1.48-3.9,3-5.5,3.84-.1.06-.2.08-.3.08-.16,0-.28-.06-.42-.2-.46-.46-1.12-.86-1.72-1.18,2.76-1.42,4.46-2.58,6.3-4.1,1.58-1.3,3.02-2.7,4.26-4.18.68-.8.94-1.2,1.26-2.06.9.5,1.78,1.04,2.22,1.4.12.08.16.2.16.3,0,.16-.12.34-.28.44-.34.22-.66.52-1.2,1.1-.78.94-1.52,1.72-2.34,2.52v6.62h0Z"/>
        <path class="cls-2" d="M121.94,19.64c.08-.1.18-.16.28-.16.08,0,.16.04.26.1,1.02.54,2.68,1.76,3.82,2.84.12.12.18.2.18.28s-.04.16-.12.26c-.3.4-.96,1.2-1.24,1.5-.1.1-.16.16-.24.16s-.16-.06-.26-.16c-1.2-1.24-2.64-2.38-4.08-3.26.44-.54,1.02-1.16,1.4-1.56h0ZM123.68,30.18c2.44-1.26,3.74-2.1,5.76-3.72,2.44-1.98,3.78-3.26,5.48-5.44.12,1,.3,1.68.56,2.34.06.14.1.26.1.38,0,.18-.1.34-.32.6-1.06,1.24-2.78,2.84-4.6,4.24-1.66,1.3-3.34,2.42-6.04,3.92-.9.54-1.16.74-1.34.92-.12.12-.24.2-.36.2-.1,0-.22-.08-.34-.22-.5-.56-1.12-1.38-1.6-2.22,1.02-.28,1.64-.46,2.7-1h0Z"/>
        <path class="cls-2" d="M150.68,21.66c-2.44.46-4.58.88-6.72,1.32-.76.18-.96.22-1.26.32-.14.06-.28.16-.44.16-.14,0-.3-.12-.38-.3-.26-.54-.48-1.24-.74-2.16,1.02-.04,1.62-.12,3.18-.34,2.46-.36,6.86-1.02,12.02-1.7.3-.04.4.08.42.22.1.46.2,1.2.22,1.76,0,.24-.12.3-.38.3-.94.06-1.58.16-2.44.44-3.4,1.16-5.1,3.5-5.1,5.9,0,2.58,1.84,3.98,5.32,4.2.32,0,.44.08.44.3,0,.52-.08,1.22-.22,1.72-.06.3-.14.42-.38.42-3.52,0-7.38-2.02-7.38-6.18,0-2.84,1.42-4.76,3.84-6.34v-.04h0ZM154.64,23.82c.1-.08.18-.06.3.04.62.48,1.34,1.28,1.9,2.14.08.12.08.22-.06.32l-.84.62c-.14.1-.24.08-.34-.06-.6-.92-1.24-1.68-2.02-2.32l1.06-.74ZM156.42,22.52c.12-.08.18-.06.3.04.74.56,1.46,1.36,1.9,2.06.08.12.1.24-.06.36l-.8.62c-.16.12-.26.06-.34-.06-.54-.86-1.18-1.62-2-2.3l1-.72Z"/>
        <path class="cls-2" d="M165.84,29.92c-1.86,0-2.52.04-2.64.04-.2,0-.22-.02-.22-.22v-1.4c0-.2.02-.22.22-.22.1,0,.66.04,2.1.04v-2.7h-.58c-1.74,0-2.34.04-2.46.04-.18,0-.2-.02-.2-.22v-1.46c0-.2.02-.22.2-.22.12,0,.72.04,2.46.04h.58v-2c-.32.34-.66.66-1,.96-.24.18-.36.26-.46.26-.12,0-.22-.12-.44-.4-.3-.38-.58-.66-.9-.88,1.6-1.08,2.72-2.42,3.48-3.72.24-.46.38-.8.5-1.2.58.12,1.2.3,1.72.5.16.06.28.16.28.26s-.06.2-.18.28c-.16.12-.28.28-.46.58-.2.32-.42.66-.66,1h9.08c1.94,0,2.62-.04,2.74-.04.22,0,.24.02.24.22v1.44c0,.18-.02.2-.24.2-.1,0-.58-.02-1.82-.04v2.58h.32c1.74,0,2.34-.04,2.46-.04.18,0,.2.02.2.22v1.46c0,.2-.02.22-.2.22-.12,0-.72-.04-2.46-.04h-.32v2.7c1.36,0,1.9-.04,2-.04.2,0,.22.02.22.22v1.4c0,.2-.02.22-.22.22-.12,0-.76-.04-2.64-.04h-10.7ZM162.52,34.08c-.14-.08-.2-.16-.2-.22s.04-.1.12-.18c.96-.9,1.72-1.92,2.26-3.08.08-.2.12-.2.4-.08l1.16.48c.26.12.26.16.18.36-.6,1.32-1.44,2.52-2.36,3.5-.06.08-.12.12-.18.12s-.12-.04-.24-.12l-1.14-.78h0ZM168.68,23.64v-2.58h-1.54v2.58h1.54ZM168.68,28.16v-2.7h-1.54v2.7h1.54ZM169.4,30.92c.24-.02.3-.02.34.2.26,1.04.38,2.16.46,3.32.02.2-.02.26-.26.28l-1.44.12c-.32.04-.34,0-.34-.2-.02-1.14-.12-2.28-.34-3.3-.04-.24,0-.28.3-.3l1.28-.12h0ZM172,23.64v-2.58h-1.58v2.58h1.58ZM172,28.16v-2.7h-1.58v2.7h1.58ZM173.3,30.82c.26-.04.3-.02.38.16.46,1.04.78,2.12,1.02,3.18.04.22.02.26-.24.32l-1.42.28c-.3.06-.34.06-.38-.16-.2-1.12-.46-2.24-.84-3.22-.08-.2-.04-.24.24-.3l1.24-.26h0ZM175.34,23.64v-2.58h-1.6v2.58h1.6ZM175.34,28.16v-2.7h-1.6v2.7h1.6ZM177.1,30.48c.24-.12.3-.1.44.06.84.98,1.56,2,2.16,3.16.1.18.08.22-.18.36l-1.26.7c-.24.12-.3.1-.4-.08-.58-1.22-1.2-2.26-2.02-3.34-.12-.16-.1-.2.16-.32l1.1-.54h0Z"/>
        <path class="cls-2" d="M187.18,19.72c0-1.28-.04-1.92-.16-2.82.74.02,1.34.06,2.02.14.2.02.32.12.32.2,0,.18-.06.28-.12.42-.12.24-.14.66-.14,2.02v3.76h.16c1.54,0,2.04-.04,2.16-.04.2,0,.22.02.22.22v1.42c0,.18-.02.2-.22.2-.12,0-.6-.04-2.04-.04.84,1.38,1.62,2.36,2.7,3.46-.3.36-.58.84-.8,1.32-.12.24-.2.36-.28.36s-.18-.1-.32-.3c-.58-.84-1.14-1.76-1.62-2.86,0,3.96.14,7.54.14,7.84,0,.2-.02.22-.24.22h-1.64c-.2,0-.22-.02-.22-.22,0-.3.1-3.6.14-7.34-.6,1.62-1.4,3.16-2.42,4.56-.16.2-.26.32-.36.32-.08,0-.16-.1-.24-.34-.18-.56-.48-1.18-.72-1.46,1.44-1.66,2.48-3.46,3.22-5.56h-.36c-1.56,0-2.06.04-2.18.04-.2,0-.22-.02-.22-.2v-1.42c0-.2.02-.22.22-.22.12,0,.62.04,2.18.04h.82v-3.72h0ZM185.26,18.36c.24-.1.26-.08.36.12.52,1.18.84,2.2,1.08,3.36.04.2,0,.26-.26.36l-.86.32c-.3.12-.32.1-.36-.12-.22-1.2-.56-2.28-1.02-3.34-.08-.22-.04-.26.22-.36l.84-.34h0ZM190.4,19.02c.04-.2.1-.56.12-.86.54.18,1.16.38,1.52.56.16.08.22.14.22.24s-.04.16-.12.2c-.12.08-.18.22-.24.44-.24.82-.54,1.62-.92,2.54-.12.3-.18.42-.3.42-.08,0-.2-.06-.4-.18-.3-.16-.62-.28-.8-.34.42-1.04.74-2.16.92-3.02h0ZM197.66,28.08v-8c0-1.42-.02-2.04-.16-3.04.76.02,1.42.06,2.12.14.18.02.3.1.3.22,0,.14-.06.24-.12.4-.1.24-.12.74-.12,2.22v7.66c1.16-.24,1.62-.38,1.8-.42.18-.04.18-.02.22.2l.24,1.56c.02.18.02.2-.2.24-.14.04-.68.12-2.06.4v1.86c0,2.22.04,3.36.04,3.46,0,.2-.02.22-.22.22h-1.66c-.2,0-.22-.02-.22-.22,0-.12.04-1.22.04-3.44v-1.48l-2.74.54c-1.74.34-2.38.48-2.58.52-.2.04-.24.02-.26-.16l-.26-1.58c-.04-.22-.02-.22.18-.26.2-.04.86-.1,2.6-.44l3.06-.6h0ZM193.26,22.98c.1-.1.14-.14.18-.14.06,0,.1.04.2.12.92.64,1.96,1.58,2.76,2.56.14.18.14.22-.06.42l-.98.98c-.22.2-.26.2-.4.04-.82-1.04-1.72-1.98-2.64-2.72-.08-.08-.14-.12-.14-.16,0-.06.06-.12.16-.22l.92-.88ZM193.8,18.42c.18-.16.2-.2.38-.08,1,.7,2.02,1.56,2.82,2.54.12.14.12.22-.06.38l-.96.94c-.22.22-.26.24-.38.06-.82-1.04-1.84-1.98-2.72-2.62-.14-.1-.16-.2.04-.38l.88-.84h0Z"/>
        <path class="cls-2" d="M208.36,35.24c-.2,0-.22-.02-.22-.22,0-.36.1-4.32.14-9.08-.52,1.6-1.28,3.14-2.26,4.58-.14.2-.24.3-.32.3s-.14-.1-.2-.32c-.18-.64-.44-1.26-.72-1.7,1.4-1.64,2.5-3.66,3.26-6.08h-.46c-1.46,0-1.94.04-2.06.04-.2,0-.22-.02-.22-.22v-1.46c0-.2.02-.22.22-.22.12,0,.6.04,2.06.04h.64v-1.24c0-1.24-.02-1.88-.16-2.72.72.02,1.36.06,2,.14.2.02.32.1.32.2,0,.18-.06.28-.12.42-.1.24-.14.56-.14,1.94v1.26c1.48,0,1.96-.04,2.08-.04.2,0,.22.02.22.22v1.46c0,.2-.02.22-.22.22-.12,0-.58-.04-1.96-.04.58,1.36,1.62,2.7,2.64,3.82-.28.42-.52.92-.76,1.54-.1.22-.16.32-.22.32-.08,0-.16-.1-.28-.28-.64-.92-1.18-1.9-1.56-2.98.02,5.3.14,9.52.14,9.88,0,.2-.02.22-.22.22h-1.62,0ZM213.56,35.14c-.2,0-.22-.02-.22-.2,0-.12.04-1.44.04-7.56v-3.94c0-3.96-.04-5.28-.04-5.42,0-.2.02-.22.22-.22.14,0,.74.04,2.46.04h3.84c1.72,0,2.32-.04,2.44-.04.2,0,.22.02.22.22,0,.12-.04,1.46-.04,4.76v4.58c0,6.08.04,7.4.04,7.52,0,.18-.02.2-.22.2h-1.64c-.18,0-.2-.02-.2-.2v-.92h-5.04v.98c0,.18-.02.2-.24.2h-1.62,0ZM215.42,22.6h5.04v-2.84h-5.04v2.84ZM220.46,27.26v-2.78h-5.04v2.78h5.04ZM220.46,32.04v-2.9h-5.04v2.9h5.04Z"/>
        <path class="cls-2" d="M231.38,20.44c1.52,0,2-.04,2.12-.04.2,0,.22.02.22.22v1.42c0,.22-.02.24-.22.24-.12,0-.6-.04-2.12-.04h-2.22c-1.5,0-2,.04-2.1.04-.2,0-.22-.02-.22-.24v-1.42c0-.2.02-.22.22-.22.1,0,.6.04,2.1.04h2.22ZM233.14,33.46c3.46-1,4.66-3.2,4.88-6.42.06-.7.06-1.24-.02-1.9.7.04,1.34.08,1.92.2.24.04.38.12.38.26s-.02.22-.12.36-.14.34-.22,1.2c.56,3.3,2.78,5.26,5.26,6.14-.28.36-.6.9-.82,1.4-.16.34-.22.5-.38.5-.1,0-.22-.06-.46-.18-1.88-1-3.4-2.5-4.26-4.64-.72,2.02-2.02,3.62-4.38,4.68-.22.08-.34.14-.46.14-.16,0-.24-.14-.42-.5-.26-.46-.54-.9-.9-1.22.02.86.04,1.12.04,1.2,0,.2-.02.22-.2.22h-1.44c-.2,0-.22-.02-.22-.22v-.54h-1.86v.92c0,.18-.02.2-.22.2h-1.44c-.2,0-.22-.02-.22-.2,0-.14.04-.6.04-3.02v-1.28c0-1.26-.04-1.74-.04-1.88,0-.2.02-.22.22-.22.12,0,.54.04,1.82.04h1.52c1.28,0,1.7-.04,1.84-.04.18,0,.2.02.2.22,0,.12-.04.6-.04,1.54v3.04h0ZM231.24,17.7c1.28,0,1.68-.04,1.8-.04.2,0,.22.02.22.22v1.34c0,.18-.02.2-.22.2-.12,0-.52-.04-1.8-.04h-1.62c-1.3,0-1.7.04-1.82.04-.18,0-.2-.02-.2-.2v-1.34c0-.2.02-.22.2-.22.12,0,.52.04,1.82.04h1.62ZM231.02,23.28c1.18,0,1.54-.04,1.66-.04.22,0,.24.02.24.22v1.3c0,.2-.02.22-.24.22-.12,0-.48-.04-1.66-.04h-1.28c-1.22,0-1.58.04-1.7.04-.2,0-.22-.02-.22-.22v-1.3c0-.2.02-.22.22-.22.12,0,.48.04,1.7.04h1.28ZM231.02,25.98c1.18,0,1.54-.04,1.66-.04.22,0,.24.02.24.22v1.28c0,.2-.02.22-.24.22-.12,0-.48-.04-1.66-.04h-1.28c-1.22,0-1.58.04-1.7.04-.2,0-.22-.02-.22-.22v-1.28c0-.2.02-.22.22-.22.12,0,.48.04,1.7.04h1.28ZM229.46,30.36v2.14h1.86v-2.14h-1.86ZM244.38,25.62c-.18.38-.22.52-.4.52-.08,0-.22-.04-.44-.12-1.8-.7-3.4-2.02-4.26-4.08-.72,1.82-2.02,3.22-4.24,4.1-.22.08-.34.14-.44.14-.16,0-.24-.14-.44-.5-.24-.42-.54-.84-.82-1.1,3.2-.94,4.56-2.84,4.72-5.7.04-.68.04-1.28-.02-1.84.7.04,1.32.12,1.86.2.24.04.4.1.4.24s-.04.22-.14.36c-.1.12-.14.3-.2,1.02.52,3.28,2.66,4.7,5.18,5.5-.26.3-.56.82-.76,1.26h0ZM233.64,29.92c-.24-.18-.22-.22-.08-.38.68-.74,1.26-1.64,1.66-2.5.1-.2.14-.22.4-.08l1,.52c.26.14.28.18.2.38-.42.98-.96,1.88-1.74,2.8-.08.1-.12.14-.2.14-.06,0-.14-.04-.24-.12l-1-.76h0ZM234.06,21.6c-.24-.16-.24-.2-.1-.36.6-.7,1.1-1.56,1.44-2.44.08-.22.1-.18.38-.08l1.04.4c.24.1.26.14.2.34-.4,1.02-.86,1.92-1.56,2.78-.08.1-.12.14-.18.14s-.14-.04-.24-.12l-.98-.66h0ZM242.42,27.56c.18-.26.28-.48.38-.76.54.16,1.08.36,1.54.6.28.14.36.24.36.34,0,.16-.08.22-.22.3-.12.08-.24.24-.34.38-.38.52-.8,1.08-1.34,1.64-.2.2-.32.32-.44.32-.14,0-.26-.12-.52-.32-.34-.28-.66-.5-1.04-.7.72-.62,1.24-1.24,1.62-1.8ZM242.46,19.24c.18-.26.28-.48.36-.76.52.18,1.08.42,1.5.64.26.14.32.18.32.3,0,.14-.08.2-.2.3-.1.08-.22.22-.34.4-.34.5-.68.98-1.26,1.58-.24.24-.36.36-.48.36s-.24-.1-.46-.28c-.36-.3-.7-.52-1.02-.64.76-.72,1.26-1.38,1.58-1.9h0Z"/>
        <path class="cls-2" d="M259.62,30.78c0,.22-.12.32-.38.36s-.86.1-1.42.1c-.18,0-.26-.12-.26-.32,0-.72,0-1.72.02-2.44-1.78.92-2.42,1.7-2.42,2.66,0,.84.68,1.38,2.78,1.38,1.84,0,3.44-.18,4.98-.4.18-.02.26.04.28.22.1.46.18,1.16.18,1.64.02.24-.06.38-.22.38-1.72.22-3.02.26-4.96.26-3.28,0-5.02-.98-5.02-3.3,0-1.92,1.2-3.32,4.22-4.88-.06-1.02-.3-1.42-1.2-1.38-.94.04-1.84.64-2.76,1.44-.86.84-1.36,1.42-2,2.18-.1.12-.16.18-.24.18-.06,0-.14-.06-.22-.14-.28-.28-.88-.9-1.14-1.32-.06-.08-.08-.14-.08-.18,0-.08.04-.14.14-.22,1.54-1.38,3.02-2.96,4.18-4.96-.94.04-2.02.06-3.2.06-.18,0-.24-.1-.28-.32-.06-.32-.14-1.06-.2-1.66,1.52.08,3.08.06,4.6-.02.22-.54.4-1.02.6-1.72.08-.34.14-.68.14-1.22.88.14,1.76.36,2.28.56.16.06.24.2.24.34,0,.1-.04.22-.14.3-.12.1-.24.28-.34.48-.12.28-.22.54-.46,1.08,1.22-.14,2.44-.34,3.64-.62.22-.04.28.02.32.2.1.4.18.86.2,1.44.02.2-.06.28-.34.32-1.5.22-3.22.44-4.68.6-.46.74-.9,1.48-1.5,2.22l.02.04c.64-.42,1.46-.62,2-.62,1.32,0,2.24.6,2.44,2.16.78-.36,1.92-.88,2.94-1.4.38-.2,1.02-.56,1.52-1.08.66.7,1.18,1.4,1.4,1.76.12.18.16.32.16.44,0,.16-.1.24-.3.28-.42.06-.82.16-1.22.3-1.3.46-2.6.9-4.3,1.6v3.22h0Z"/>
        <path class="cls-2" d="M278.96,18.9c-.04-.58-.08-.86-.24-1.46.9.06,1.86.18,2.34.28.34.06.56.2.56.38,0,.16-.06.26-.18.46-.06.12-.12.32-.16.58-.02.26-.02.52-.04,1.28,2.16-.08,4.22-.1,6.14-.1.24,0,.28.04.3.3.02.5.02,1.02,0,1.52,0,.22-.1.28-.34.26-2.08-.06-4.02-.06-6.1-.04,0,1.22,0,2.5.02,3.72.2.54.3,1.32.3,1.98,0,2.32-.94,4.74-3.56,6.46-.34.22-.6.38-.78.38s-.4-.14-.6-.3c-.46-.38-1-.64-1.52-.8,2.34-1.04,3.74-2.72,4.1-4.4-.4.58-1.22.8-1.88.8-1.58,0-2.78-1.14-2.78-3.06s1.4-3,3.02-3c.6,0,1.2.12,1.52.4,0-.7-.02-1.38-.02-2.04-2.52.14-5.34.38-6.92.6-.44.06-.76.24-.94.24-.2,0-.28-.08-.34-.28-.16-.4-.34-1.2-.5-2.02.74.08,1.38,0,2.44-.08,1.22-.1,3.8-.26,6.2-.4-.02-.62-.02-1.12-.04-1.66h0ZM276.4,27c0,.88.56,1.36,1.28,1.36s1.36-.46,1.36-1.38c0-.82-.52-1.28-1.32-1.28-.62,0-1.32.42-1.32,1.3h0Z"/>
        <path class="cls-2" d="M299.42,25.28c1.12-.64,2.06-.9,3.18-.9,2.92,0,4.96,1.92,4.96,4.8,0,3.34-2.7,5.48-6.98,5.48-2.52,0-4.04-1.08-4.04-2.94,0-1.34,1.26-2.44,2.82-2.44,1.88,0,3.26,1,3.76,2.92,1.4-.64,2.04-1.52,2.04-3.04,0-1.82-1.28-3.02-3.14-3.02-1.66,0-3.5.74-5.12,2.12-.58.52-1.14,1.1-1.74,1.7-.14.14-.24.22-.34.22-.08,0-.18-.06-.3-.18-.42-.36-.86-.88-1.18-1.3-.12-.16-.06-.3.1-.46,1.56-1.26,2.94-2.54,4.74-4.42,1.24-1.28,2.18-2.28,3.1-3.42-1.2.22-2.62.5-3.86.76-.26.06-.52.12-.84.24-.1.04-.3.1-.4.1-.2,0-.34-.1-.44-.34-.24-.46-.42-1.02-.7-2.16.6.08,1.26.08,1.86.04,1.22-.12,2.98-.38,4.54-.68.5-.1.9-.2,1.1-.3.1-.06.28-.16.38-.16.2,0,.32.06.46.16.6.46,1,.86,1.34,1.28.16.18.22.32.22.48,0,.2-.12.38-.34.48-.34.16-.5.3-.88.64-1.46,1.42-2.8,2.82-4.32,4.28l.02.06h0ZM299.44,30.98c-.58,0-.96.34-.96.76,0,.62.54,1.04,1.74,1.04.36,0,.62-.02.92-.08-.26-1.1-.86-1.72-1.7-1.72Z"/>
      </g>
    </g>
  </g>
</svg>